<?xml version="1.0" encoding="utf-8"?>
<!-- Generator: Adobe Illustrator 27.6.1, SVG Export Plug-In . SVG Version: 6.00 Build 0)  -->
<svg version="1.1" id="Livello_1" xmlns="http://www.w3.org/2000/svg" xmlns:xlink="http://www.w3.org/1999/xlink" x="0px" y="0px"
	 viewBox="0 0 1366 768" style="enable-background:new 0 0 1366 768;" xml:space="preserve">
<style type="text/css">
	.st0{fill:#D22163;}
</style>
<path class="st0" d="M1165.8,515.6c-6.5-0.8-7.8,2.7-8.3,7.4c-0.6,4.9-1.6,9.8-2.5,14.7c-1.6,8.9-6.2,13.1-16.1,12.1
	c-5.7-0.6-8.8-2.2-10.2-7.6c-1.4-5.6-4-11.2-4.2-16.8c-0.4-9.6-5.3-11.2-12.4-9.6c-4.9,8.5-9.3,16.8-14.6,24.4
	c-1.5,2.2-6.2,4.5-8.3,3.6c-4.7-1.9-12.2-1-12.9-8.3c-0.7-6.8-0.7-13.7-0.2-20.5c0.5-6.9,0-12.5-8.9-12.6
	c-6.6,6.3-13.6,12.6-20.2,19.3c-6,6.2-11.2,1.4-15.2-1.6c-2.8-2.1-4.6-7.4-4.5-11.2c0.1-5.1,1.5-10.6,3.8-15.2
	c4.1-8.1,3.7-13.9-4.7-16.6c-8.7,4.8-16.8,9.4-25.1,13.7c-5.7,2.9-9.3-0.8-13.1-4.6c-3.3-3.3-5-6.2-2.4-11
	c4.4-7.9,8.2-16.2,12.9-25.6c-1.2-1.7-3.5-5.1-5.4-7.8c-8.1,2.4-15.4,4.7-22.8,6.6c-5.7,1.4-11.2,2.3-15.3-4.5
	c-4.1-7-3.8-12.4,2.1-17.8c4.2-3.8,7.5-9,12.2-11.6c5.4-3,5.4-6.4,2.7-10c-1.7-2.3-5.4-4-8.4-4.2c-7.6-0.6-15.4,0.4-23-0.5
	c-2.7-0.3-6.4-3.9-7-6.5c-0.9-4.4-1.4-11,1.1-13.4c5.2-5.1,12.1-9,19-11.6c5.2-2,6.9-4.1,6.8-9.4c-0.1-5.7-3.2-6-7.7-6.4
	c-4.9-0.5-9.8-1.9-14.5-3.4c-12.2-3.8-11.9-3.9-12-17c0-4.6,1.1-7.4,5.9-8.3c7.5-1.5,15-3.8,22.6-5c9.3-1.4,4.1-8.1,5.5-11.8
	c-8.4-5.2-16.6-9.8-24.2-15.2c-2.3-1.7-4.8-6.2-4.1-8.4c1.5-4.5,4.6-10.8,8.1-11.7c7.8-1.8,16.4-1.2,24.5-0.6c4.8,0.4,7-1.7,7.5-5.6
	c0.3-2.6-0.3-6-1.9-7.9c-5.4-6.4-11.8-11.9-17.1-18.4c-4.4-5.4,1.9-17.5,9-17.1c6.9,0.4,13.8,1.5,20.4,3.5c9.8,2.9,9.6,3.3,16.6-4.6
	c-4.4-7.6-9-15.1-13.3-22.8c-2.7-5-3-9.7,1.6-14.5c4.7-4.9,9.3-6.7,15.3-3.3c7.7,4.4,15.3,9,23.7,14c2-2.2,4.5-4.8,6-6.3
	c-2.6-10.7-5.2-20.2-7.1-29.9c-0.4-2,1.6-5.8,3.5-6.7c4.4-2,8.6-7.8,14-3.5c6.3,5,12.7,10.3,17.4,16.7c3.7,5.1,7.1,3.9,11.3,2.6
	c5-1.6,3.9-5.3,3.7-9.4c-0.4-8.5-0.4-17.2,0.9-25.6c0.9-5.6,16.3-7.2,20.4-2c3.9,5,7.1,10.6,9.9,16.3c5.1,10.6,4.9,10.7,15.2,7.1
	c2.4-8.9,4.6-17.1,6.9-25.3c1.7-6.1,6.9-8.3,12.3-7.8c5.4,0.5,10.8,2.1,12,9.4c1.3,7.6,3.7,15,5.9,23.3c10.1,4.9,9.8,4.7,14.9-6
	c2.8-6,6.6-11.5,10.3-17c4.4-6.5,10.3-2.1,15.3-1.1c2.2,0.4,5,4.2,5.3,6.6c0.7,7.9,0,15.9,0.5,23.8c0.2,2.7,2,6.5,4.1,7.6
	c3.3,1.7,7.2,2.9,10.7-1.8c4.5-5.9,10-11.3,16-15.6c2.6-1.9,7.8-1.5,11.3-0.4c4,1.3,8,4,6.8,9.8c-1.3,6.5-1.1,13.6-3.7,19.4
	c-3.6,7.8-1.8,12.4,4.5,15.7c8.8-4.6,17-9.7,25.9-13.1c3.2-1.2,8.7,0.4,11.7,2.7c3.6,2.8,6.9,7.2,3.8,12.8
	c-2.8,5.1-5.3,10.4-8.5,15.3c-5.6,8.8-5.8,8.7-0.2,17c10.1-2.3,19.9-4.8,29.7-6.9c8-1.7,8,6.4,10.9,10.3c1.3,1.8,0.1,6.9-1.7,9.1
	c-4.7,5.8-10.5,10.6-15.6,16.1c-1.7,1.8-3.7,4.8-3.3,6.7c0.8,3.4,1.9,7.5,7.6,7c7.4-0.6,14.8,0.3,22.2-0.3c7.4-0.6,8.3,4.2,10.3,9.4
	c2.3,5.8,1.1,10.1-3.6,13.1c-7.5,4.7-15.3,8.7-23.5,13.2c-1,10.2-0.9,10.3,10,12c4.1,0.6,8,2,12,3.3c11.6,3.8,13.8,7.3,11.2,19.2
	c-0.4,1.8-2.2,4-3.9,4.6c-6.4,2.5-13,6.3-19.6,6.3c-10.2,0-11.1,4.9-10.1,12.3c7.7,4.1,15.2,8.2,22.7,12.2c7.8,4.1,5.7,10.6,4,16.8
	c-1.5,5.5-5.8,6.8-11,6.7c-8.4-0.2-16.9-0.1-25.5-0.1c-1.2,2.6-2.5,5.6-3.9,8.5c6.4,6.7,12.4,13.5,19,19.8
	c5.9,5.7,1.8,10.7-0.5,15.9c-2.5,5.6-7.4,5.6-12.2,4.7c-5.1-1-10.2-2.5-15.1-4.2c-10.4-3.4-10.4-3.5-15.8,5.3
	c4.7,8.6,9.2,16.5,13.4,24.5c3,5.7-0.6,9.2-4.2,13.1c-3.6,3.8-7,5-11.8,2.4c-7.7-4.2-15.6-8.1-24.9-12.9c-5.5,2.2-9.6,5.6-4.3,14.4
	c2.7,4.5,2.8,10.6,3.7,16c1,6.4-0.8,10.9-7.2,14.3c-6.8,3.6-11.2,0.4-15.6-3.4c-4-3.5-8.1-7.2-10.8-11.7c-3.3-5.5-7.5-6.4-11.6-3
	c-2.2,1.8-2.7,6.3-3,9.6c-0.6,8,0.6,16.4-1.6,23.8c-1,3.3-8.4,5.1-13.2,6.6c-1.7,0.5-5.2-1.6-6.4-3.4c-4.5-6.9-8.3-14.3-12.7-21.2
	C1170.9,517.6,1168.4,516.8,1165.8,515.6 M1044.5,208.5c-10.5,10.6-22.3,20.3-31.3,32.1c-26.5,34.5-36.7,74.3-29.9,117
	c6.2,39.6,24.7,73.2,56.5,99c38.4,31,81.4,43.1,130,33.7c51.9-10,89.5-39.3,113.2-85.9c16.1-31.6,21-65.3,13.5-100.4
	c-8.4-39.7-28.1-72.7-60.8-96.6c-37.2-27.3-79.1-38.3-125.1-29.1C1086.8,183,1064.7,192.3,1044.5,208.5z"/>
<path class="st0" d="M130.1,274.8c5.7,26.2-2.6,45.6-26,58.4c9.2,20.7,18.1,40.9,27.2,61.1c3.9,8.6,2.5,11-6.9,11.1
	c-23.8,0.2-23.4,0.1-32-21.8c-5-12.9-11-25.5-17.1-37.9c-1.1-2.2-4.8-4.3-7.4-4.5c-7.8-0.6-15.7-0.2-24.5-0.2
	c0,18.7-0.4,36.7,0.2,54.7c0.3,8.1-2.5,10.1-10.2,9.9c-20.5-0.4-20.5-0.1-20.5-20.6c0-44.6,0-89.3,0-133.9c0-11,0.8-11.6,11.4-11.9
	c20.2-0.5,40.5-1.4,60.7-1.6c20.3-0.2,38.2,12.7,44.5,31.5C130.1,270.6,129.8,272.4,130.1,274.8 M101.1,287.8
	c-2.8-12.9-9.9-21.6-23.8-22.3c-11-0.6-22-0.1-33.8-0.1c0,15.5-0.2,29.3,0.3,43c0.1,1.9,3.5,4.9,5.6,5.1c7.3,0.6,14.6,0.5,22,0.2
	C89.4,312.9,98.2,306.9,101.1,287.8z"/>
<path class="st0" d="M458.9,363c0,12.7-0.2,24.6,0.1,36.4c0.2,6-2.1,8.3-7.9,7.7c-1.1-0.1-2.6,0.4-3.3-0.1c-13.5-9.4-27-2-40.1,0.5
	c-39.8,7.8-52.5-18.9-48.1-48.7c2.7-18.7,15.5-23.9,30.8-26.2c12.9-1.9,26-2.7,38.9-4c2.1-13.5-3-19.9-16.2-19.7
	c-12.6,0.2-25.2,0.9-37.8,1.7c-5.8,0.3-7.9-1.7-8-7.7c-0.1-16.9-0.4-17.1,17.8-19.4c11.9-1.5,23.8-3.2,35.8-3.2
	c15,0.1,28.2,5.3,34.5,20.2c2.3,5.4,3.2,11.8,3.4,17.8C459.2,332.7,458.9,347.4,458.9,363 M399.3,354.5c-11.8,4.2-10.6,9.3-9.5,20.6
	c0.7,6.5,7.5,9.5,16.8,8.1c6.3-0.9,12.5-2,18.6-3.7c1.9-0.5,4.4-3,4.6-4.8c0.5-7.1,0.2-14.3,0.2-22.8
	C419.4,352.9,410.1,353.7,399.3,354.5z"/>
<path class="st0" d="M593,407.2c-14.7-3.1-24.1-14.8-25.5-32.5c-1.9-23.3,8-40.5,33.7-42.3c12.2-0.9,24.3-2.6,36.5-3.9
	c2.4-13.8-2.4-19.9-15.7-19.7c-12.6,0.2-25.2,0.9-37.8,1.7c-5.9,0.4-7.9-2.3-8.3-7.7c-1.3-17.7-0.8-18.2,17.7-19.6
	c11.9-0.9,23.9-3.3,35.8-3.1c14.5,0.3,28.4,4.1,34.5,19.6c2.1,5.3,3.5,11.2,3.5,16.9c0.4,26.8,0.2,53.6,0.2,80.5
	c0,9.7-3.3,13.6-11.3,9.4c-14.9-8-27.9,0.6-41.7,1.5C607.6,408.5,600.7,407.6,593,407.2 M619.6,352.8c-4.3,0.8-8.8,1.1-13,2.5
	c-7.4,2.5-11,9.7-8.5,18.5c1.8,6.3,6.4,10.5,13.7,9.5c7.4-1,14.8-2.1,22.1-3.7c1.7-0.4,4.3-2.6,4.4-4.1c0.4-7.4,0.2-14.9,0.2-22.7
	C631.9,352.8,626.6,352.8,619.6,352.8z"/>
<path class="st0" d="M148.6,359c0.6-17.5-1.9-34.2,4.8-50.5c6.5-15.7,17.7-25,34.1-26.7c11.7-1.2,24-1.4,35.5,0.8
	c20,3.9,29.9,19,33.8,37.8c3.8,18.2,3.4,36.8-1.8,54.7c-6.7,23.1-20.3,31-43.5,33.2c-9.7,0.9-20-0.9-29.7-2.9
	c-18.6-4-27.2-17.7-31.4-35C149.5,367,149.2,363.4,148.6,359 M210.9,381.1c9.4-2.4,15.1-8.2,15.7-18c0.8-11.2,2.2-22.4,1.3-33.5
	c-1.2-14-10.7-22.1-23.4-22.7c-13.4-0.6-22.2,5-24.7,17.5c-1.9,9.2-2.6,18.9-2.1,28.3c0.3,6.7,2.3,13.9,5.6,19.7
	C189,382.7,199.5,382.1,210.9,381.1z"/>
<path class="st0" d="M729.6,379.6c13.1-0.1,25.5-0.4,37.9-0.5c4.8,0,13.2-0.6,13.8,1.2c2.1,6.2,1.8,13.4,1.8,20.2c0,1.2-3,3-4.8,3.4
	c-19.1,4.3-38.5,7.7-57.8,2.4c-19.5-5.3-29.2-19.9-32.5-39c-3-17.2-2.6-34.4,1.5-51.5c4.4-18.1,19-31.9,38.8-34.7
	c16.8-2.4,32.5,1,48.7,3.3c7.2,1,7.8,5.2,7.4,10.4c-0.4,4.9-1.6,9.8-2.6,15.9c-9.6-0.9-19.4-0.9-28.8-2.8
	c-20.2-4.1-32.6,2.6-35.7,22.5c-1.5,9.7,0.6,20,0.9,30.1C718.3,368.9,723.1,374.5,729.6,379.6z"/>
<path class="st0" d="M863.8,379.9c11.2,0.2,12.1,1.1,12.2,11c0,3.4,0.5,6.9-0.2,10.1c-0.4,2-2.4,5.2-3.8,5.3
	c-12.4,0.6-25.1,2.2-37.2,0.4c-12.7-2-19.3-12.1-19.8-25.3c-0.7-20.2-1.2-40.5-1.7-60.7c-0.1-3.1,0-6.1,0-9.1
	c-16.1-3.2-15.7-3.2-15.4-21.2c0.2-12,9.8-4.7,15.4-8.6c0-2.6,0.5-6.3-0.1-9.8c-1.4-9.1,3.1-13,11.3-14.2c2.4-0.4,4.8-1.3,7.3-1.6
	c9.9-1.3,12,0.6,12.1,10.5c0,4.5,0,9,0.1,13.6c0,0.6,0.2,1.1,0.5,3c7.8,0,15.8,0.3,23.9-0.1c6-0.3,7.9,2,7.8,7.9
	c-0.2,19.5,1.8,19.8-19.2,19.3c-3.9-0.1-7.9,0-13.1,0c0,10.4,0,20.5,0,30.5c0,8.5,0,17,0,25.4c0,12.6,1,13.6,13.3,13.6
	C859.1,379.9,861.1,379.9,863.8,379.9z"/>
<path class="st0" d="M269,298.4c0-2.2,0.2-3.6,0-5c-1-7.5,1.4-11.4,9.6-10.2c1.6,0.2,3.3-0.2,5.6-0.3c0-2.6-0.2-4.8,0-7
	c0.5-5.2-0.5-13.4,2.2-14.8c6.3-3.4,14.2-3.8,21.6-4.6c1.5-0.1,4.6,3.7,4.8,5.9c0.6,6.6,0.2,13.4,0.2,20.9c8.7,0,16.5,0,24.3,0
	c2,0,4.6-0.7,5.8,0.3c7,5.6,3.4,13.5,3.3,20.3c0,2.2-4.9,5.9-7.8,6.2c-8.1,0.9-16.3,0.3-25.7,0.3c0,15.6-0.1,30.7,0.1,45.8
	c0.1,5.5,1.1,11,1.6,16.5c0.5,5.8,4,7.4,9.2,7.2c3.7-0.1,7.3,0,11,0c9.8,0,11.4,1.6,12,11.5c0.7,13.1-0.1,14.9-10.1,15.5
	c-10.4,0.6-21,0.7-31.4,0c-9.3-0.6-15-7.1-17.5-15.4c-2.1-6.8-3.3-14.1-3.5-21.2c-0.5-19.7-0.2-39.4-0.2-59.5
	C276.1,310.3,266.6,311.9,269,298.4z"/>
<path class="st0" d="M546.9,281.8c12.2,4.7,6.1,14.5,6.6,22c0.4,6.2-6.2,5.2-10.5,6.8c-8.2,3.1-16.1,7.1-23.6,11.7
	c-2,1.2-2.7,5.9-2.7,8.9c-0.2,24.2-0.1,48.5-0.1,73.9c-8.5,0-16.5,0.3-24.5-0.3c-1.6-0.1-4.1-3.8-4.1-5.8
	c-0.2-36.7-0.3-73.4,0.1-110c0-2,3.6-5,6-5.6c3.7-1,7.8-0.1,11.8-0.3c7-0.4,13.2-0.2,10.7,9.2C526.7,288.8,536.5,285.3,546.9,281.8z
	"/>
<path class="st0" d="M57.3,580.7c-15.9,2.3-31.2,4.2-47.3,6.1c0-35.8,0-69.2,0-104.1c13.5,0.7,26.6,0.6,39.5,2.3
	c19,2.5,30.1,14.1,33.2,33c2.7,16.7,4.3,33.6-7.1,47.8C70.9,571.7,63.8,575.5,57.3,580.7 M20,493.3c0,27.5,0,55.1,0,84.6
	c11.4-2.3,22.3-3,32.1-6.7c16.9-6.3,21.6-21.8,21.5-37.7c-0.1-15.3-4.1-30.8-20.9-36.4C42.7,493.7,31.7,493.7,20,493.3z"/>
<path class="st0" d="M681.7,481.7c20.5-1.8,32.5,6.1,36.6,31.6c3.2,20.3,4.6,40.6-5.7,59.7c-5.1,9.4-12.7,13.9-23.8,14.1
	c-12,0.2-22-2.5-27.2-13.9c-11.7-25.1-10.9-50.6-0.9-76.1C664.3,487.8,671.6,483.4,681.7,481.7 M665.8,516.9c0,2.3,0.4,4.6-0.2,6.7
	c-3.5,13.8-0.4,26.9,3.6,40c2.6,8.7,9.1,13.2,17.5,14.4c6.6,1,15.5-6.4,18-14.7c2.1-7.1,4.1-14.4,4.6-21.7c1.1-15,0.3-30.1-8.1-43.3
	c-6.3-10-22.3-9.8-28.5,0.4C669.6,503.9,668,509.8,665.8,516.9z"/>
<path class="st0" d="M576.7,495.2c-2.1-6.3-0.1-9.6,6.1-10.3c9.3-1,18.9-4,28-2.8c19.1,2.4,26.4,22,17.4,39.9
	c-5.6,11.3-13.9,21.3-21.7,31.4c-5.9,7.7-12.9,14.6-20.2,22.8c15.9,0,31,0,46.6,0c0.3,3.1,0.5,5.5,0.7,8.3c-20.5,0-40.4,0-60.4,0
	c-2.1-6.9,0.8-11.5,5.1-16.6c12.4-14.6,25.1-29.1,36.1-44.7c11.5-16.3,2.6-31-11.2-31.8c-6.7-0.4-13.6,3-20.4,4.4
	C581,496.2,579.1,495.8,576.7,495.2z"/>
<path class="st0" d="M519.9,536.9c-0.5,9.1,0.4,17.8-1.7,25.7c-5.3,19.2-21,27.8-41.7,24.1c-14.7-2.6-26.8-19.6-26.2-34.4
	c0.5-12.4,0.3-24.4,10.1-34.1c18.5-18.2,49.3-11.3,57.9,13.3C518.8,533,519.3,534.6,519.9,536.9 M475.9,519.1
	c-14.3,8.9-17.9,25.2-13,41.2c2.7,9,8.9,16.3,19.1,17.9c10,1.6,17.7-3.1,22.5-11.4c7.2-12.4,7-25.5,0-38
	C498.6,518.2,488.6,515,475.9,519.1z"/>
<path class="st0" d="M337.4,522.2c2.3,9.5,4.1,18.6,6.1,28.9c-18.9,0-35.4,0-52.1,0c6.1,27.7,13.8,31.4,44.6,22.4
	c2.1,7.1,0.7,10.8-7.6,12.7c-19.4,4.3-37.7-1-43.7-15.6c-7-17.3-6.8-35.2,3.7-51.2C298.2,504.6,329.1,504,337.4,522.2 M315.5,542.7
	c5.3,0,10.5,0,15.9,0c-2.4-17.4-8.4-25.5-18.4-25.4c-11.5,0-19.2,9.2-21.1,25.4C299.3,542.7,306.6,542.7,315.5,542.7z"/>
<path class="st0" d="M797,493.8c-7.2,16.9-13.9,33.3-20.7,49.6c-4.6,11-10,21.7-13.6,33c-2.7,8.5-7.2,10.3-16.2,7.7
	c13.1-30.6,26.2-61,39.7-92.4c-17.7,0-33.8,0-50.5,0c-0.2-2.7-0.3-5.1-0.5-7.9c21,0,41.5,0,62.7,0
	C797.8,487.2,797.6,490.2,797,493.8z"/>
<path class="st0" d="M177.4,569.3c-1.9,10.4-9.4,17.2-19.7,17.4c-8.5,0.2-17.1-0.6-25.8-1c0-4.6,0-7.7,0-11c6.5,1.2,13,2.9,19.6,3.6
	c7.8,0.8,13.2-4.2,15-10.9c1.7-6.5-3.7-10.4-9.1-13.3c-5.4-2.9-10.6-6-16-8.9c-7.3-4.1-11.6-13.6-9.7-21.2c2-7.9,9.9-14.9,18-14.9
	c7.7,0,15.5,0.7,23.7,1.1c0,4,0,6.9,0,9.6c-6.3-0.8-12.5-1.9-18.7-2.3c-6.4-0.4-10.9,3.5-12.4,9.2c-1.6,5.9,2.9,8.8,7.8,11
	c4.1,1.8,8,4,12,5.9C172.7,548.6,178.8,556.3,177.4,569.3z"/>
<path class="st0" d="M423.3,529.4c0,12.1,0.8,23.5-0.2,34.7c-1,11.8,6.6,17.2,17.4,12.9c2.6,8.7,1.9,9.3-6.9,9.9
	c-15.5,1-21.4-4.1-20.7-20.5c0.7-15.4,0.2-30.9,0.2-47c-5.1-0.2-9.5-0.4-14.6-0.7c-0.2-2.3-0.5-4.7-0.8-8c5.2,0,9.9,0,14.5,0
	c0.9-6.8,1.1-12.9,2.7-18.6c0.4-1.5,4.9-2,8.3-3.2c0,7.2,0,13.8,0,21.4c5.8,0,11.1,0,16.6,0c0,3.3,0,5.6,0,8.6c-5.4,0-10.4,0-16.5,0
	C423.3,522.5,423.3,525.5,423.3,529.4z"/>
<path class="st0" d="M195.8,510.5c1.8-3.1,3.8-6.3,3.5-9.2c-0.7-7.7,1.8-11.8,10.5-11.5c0,6.5,0,13.2,0,20.5c5.6,0,10.6,0,16.2,0
	c0.2,3,0.4,5.3,0.7,8.6c-5.8,0-11,0-17,0c0,17.5-0.3,34.1,0.1,50.7c0.2,7.8,6.8,10.2,17.7,7.4c2.5,7.5-0.2,10.1-8,10
	c-16.7-0.2-20-3.3-20-20.2c0-15.5,0-31,0-47.5c-5.1,0-9.7,0-14.7,0c0-3.3,0-5.6,0-8.8C188.3,510.5,191.7,510.5,195.8,510.5z"/>
<path class="st0" d="M365.6,522.9c-4.6-2.4-9.1-3.9-14.8-5.9c-0.1-0.9-0.2-3.2-0.4-6.2c5,0,9.4,0,13.6,0c5.1-6.9-5.2-21.2,11.9-21.1
	c0,6.5,0,13.2,0,20.5c5.6,0,10.6,0,16.2,0c0.3,3,0.5,5.3,0.8,8.6c-5.8,0-11,0-17.1,0c0,17.8-0.4,34.7,0.2,51.5
	c0.2,7.2,7.1,9.4,17.6,6.6c2.5,7.4-0.1,10.1-7.8,10c-16.7-0.2-20.1-3.3-20.1-20C365.6,552.5,365.6,538.1,365.6,522.9z"/>
<path class="st0" d="M857.4,549.5c0,12.1,0,23.3,0,35.1c-3.5,0-6.4,0-10,0c0-28.8,0-57.5,0-87.9c-6.3,5.1-11.4,9.2-16.5,13.3
	c-5.5-3.9-8.7-7.5-0.4-12.6c5.1-3.2,8.9-8.5,14.1-11.8c3.2-2,7.7-2,12.8-3.1C857.4,505.4,857.4,527,857.4,549.5z"/>
<path class="st0" d="M266.5,519c-14.9,5.3-14.9,18.3-15.9,29.9c-1.1,11.7-0.2,23.6-0.2,35.8c-3.5,0-6.3,0-9.6,0
	c0-24.3,0-48.8,0-73.7c3,0,6,0,9.2,0c0.2,2.7,0.4,5.1,0.7,8.7c6.5-7.6,13.2-13.8,24.8-9.8c0.1,2.1,0.2,5,0.4,8.7
	C272.6,518.7,269.9,518.8,266.5,519z"/>
<path class="st0" d="M104.5,554.6c0-14.9,0-28.9,0-43.5c3.5,0,6.4,0,9.7,0c0,24.5,0,48.9,0,73.7c-3.1,0-5.9,0-9.7,0
	C104.5,575,104.5,565.2,104.5,554.6z"/>
<path class="st0" d="M106.5,478.4c2.9-0.1,5.1-0.1,7.7-0.1c0,4.5,0,8.4,0,13.1c-2.8,0.1-5.7,0.3-10,0.4
	C104.8,487,105.3,482.8,106.5,478.4z"/>
<path class="st0" d="M1276.3,293.4c13.3,46.5,5.1,88.7-22.8,126.8c-22.5,30.7-53.8,48.3-90.8,54.2c-40.6,6.4-77.7-3.8-110.3-29.2
	c-29.9-23.3-47.2-54.3-51.9-91c-4.8-37.2,2.8-72.6,26-103.6c21.4-28.6,49.2-47.6,83.9-54.5c43.9-8.7,84.6-0.5,120.1,28.5
	C1252.7,242.8,1267.6,265.6,1276.3,293.4 M1189,444.5c18.2-7.4,32.9-19.2,45.7-35.2c-21.6-10.6-42.2-20.9-63.1-30.6
	c-4.9-2.3-8.8-0.7-9.2,6.6c-1.2,20.6-3.2,41.2-4.8,61.7c-0.4,4.7-0.1,8.6,6.8,6C1172.1,450.1,1180.1,447.8,1189,444.5 M1056.6,420.6
	c18.6,18.1,40.4,29.8,67.4,34.3c-0.8-16.8-1.4-32.2-2.2-47.5c-0.3-6.7-1-13.3-1.6-20c-0.7-8.5-3.9-10.5-11.2-7
	c-18.5,8.9-36.9,17.9-55.4,26.8c-5.2,2.5-6.2,5.1-1.4,9C1053.5,417.2,1054.6,418.5,1056.6,420.6 M1067.1,241c-4.7,4-9.5,7.8-14,12
	c-7.1,6.7-6.8,8.7,1.7,12.9c15.4,7.6,31,14.9,46.4,22.4c15.7,7.7,15.7,7.7,17.3-9.8c0.1-0.6,0-1.1,0.1-1.7c1.7-17.7,3.3-35.4,5-53.1
	c0.5-5.3-2.4-7.9-7.1-6.3C1099.5,223.1,1082.1,228.2,1067.1,241 M1198.2,279c11.8-6,23.7-11.9,36.1-18.2c-2.5-3.1-4.1-5.7-6.2-7.9
	c-16.1-16.3-35.3-27.5-57.2-34.1c-12.3-3.7-13.9-2.3-11.8,10.7c0.2,1.4,0,2.8,0.1,4.2c1.1,17.6,2.1,35.1,3.5,52.6
	c0.4,5.2,2.8,8.3,8.8,5.3C1180,287.5,1188.6,283.7,1198.2,279 M1030.8,293.5c-1.3,1.3-3.5,2.4-3.9,4c-2.1,8.6-3.8,17.2-5.5,25.8
	c-3.9,19.5,1.7,37.7,7.1,57.6c22-15.1,42.8-29.4,65.8-45.1C1072.2,320.8,1052.2,307.2,1030.8,293.5 M1246.3,295
	c-17,11.4-34,22.8-50.9,34.3c-7.4,5.1-7.3,6.8-0.2,11.7c10.3,7.1,20.3,14.4,30.7,21.4c8.3,5.6,16.9,10.9,26.3,16.9
	c1.6-4.1,3-6.8,3.6-9.7c1.7-7.5,3.6-15,4.6-22.7c2.2-17.4-0.9-34.3-6-50.9C1253.1,291.6,1250.8,290.5,1246.3,295 M1154.2,369.6
	c11.8-5.3,19.5-14,22.8-26.8c3.6-13.9-3.4-32.8-16.1-39c-2.2-1.1-6.6-0.3-8.5,1.4c-1.2,1-0.6,5.5,0.5,7.9c1.1,2.4,3.8,4.1,5.8,6.1
	c5.8,6,7.6,17,4.1,24.8c-4.7,10.5-11.6,14.3-25.1,13.9c-8.7-0.3-16.1-5.8-19.1-13.8c-4.5-12.2-0.4-21.5,8.6-30
	c1.9-1.7,1.2-6.1,1.8-9.3c-3.5-0.1-8.1-1.7-10.2,0c-14.4,11.1-21.2,28.2-10.1,49C1116.5,368.3,1135.8,375.6,1154.2,369.6z"/>
</svg>
